<?xml version="1.0" encoding="utf-8"?>
<!-- Generator: Adobe Illustrator 19.2.1, SVG Export Plug-In . SVG Version: 6.00 Build 0)  -->
<svg version="1.1" id="layer" xmlns="http://www.w3.org/2000/svg" xmlns:xlink="http://www.w3.org/1999/xlink" x="0px" y="0px"
	 viewBox="0 0 652 652" style="enable-background:new 0 0 652 652;" xml:space="preserve">
<style type="text/css">
	.st0{fill:#0066B4;}
</style>
<g>
	<path class="st0" d="M87.9,388.8v10.5c-6.9-7.1-15.4-10.7-25.6-10.7c-9.6,0-17.5,3.3-23.8,9.7c-6.3,6.4-9.4,14.5-9.4,24.2
		c0,9.7,3.1,17.8,9.4,24.3c6.3,6.4,14.2,9.6,23.8,9.6c10.3,0,18.8-3.6,25.6-10.7V456c-6.8,5.7-15.3,8.6-25.6,8.6
		c-11.8,0-21.8-4-30.1-12c-8.2-8-12.3-18.2-12.3-30.2c0-12,4.1-22,12.3-30.1c8.3-8.1,18.3-12.1,30.1-12.1
		C72.7,380.1,81.2,383.1,87.9,388.8"/>
	<path class="st0" d="M106.7,433.6c0,6.6,2.1,12.1,6.4,16.6c4.3,4.3,9.7,6.5,16.2,6.5c6.5,0,11.9-2.2,16.2-6.5
		c4.3-4.4,6.4-9.9,6.4-16.6c0-6.7-2.1-12.1-6.4-16.5c-4.3-4.4-9.7-6.7-16.2-6.7c-6.5,0-11.9,2.2-16.2,6.7
		C108.8,421.4,106.7,426.9,106.7,433.6 M98.1,433.6c0-8.9,3-16.2,9.1-22.2c6.1-5.9,13.4-9,22.2-9c8.8,0,16.1,3,22.2,9
		c6.1,6,9.1,13.3,9.1,22.2c0,8.9-3,16.3-9.1,22.3c-6.1,6-13.4,8.9-22.2,8.9c-8.7,0-16.1-2.9-22.2-8.9
		C101.1,449.9,98.1,442.4,98.1,433.6"/>
	<path class="st0" d="M171.4,463v-58.8h8.6v9.9c2.8-6.5,8.6-10.8,16.6-10.8c8.4,0,14.1,3.8,17.3,11.7c3.6-7.8,9.9-11.7,18.8-11.7
		c12,0,19.6,8.7,19.6,22.2V463h-8.6v-35.7c0-9.8-4.9-16-13.3-16c-8.4,0-14.5,6.8-14.5,16.6V463h-8.6v-35.7c0-9.9-4.8-16-13.1-16
		c-8.1,0-14.1,6.8-14.1,16.6V463H171.4z"/>
	<path class="st0" d="M265,463v-58.8h8.6v9.9c2.8-6.5,8.6-10.8,16.6-10.8c8.4,0,14.1,3.8,17.3,11.7c3.6-7.8,9.9-11.7,18.8-11.7
		c12,0,19.6,8.7,19.6,22.2V463h-8.6v-35.7c0-9.8-4.9-16-13.3-16c-8.4,0-14.5,6.8-14.5,16.6V463h-8.6v-35.7c0-9.9-4.8-16-13.1-16
		c-8.1,0-14.1,6.8-14.1,16.6V463H265z"/>
	<path class="st0" d="M403.2,427.9c0-4.7-1.7-8.6-5.3-12c-3.5-3.4-7.7-5.1-12.6-5.1c-5.4,0-10,1.6-13.9,5c-3.8,3.4-6,7.3-6.3,12.1
		H403.2z M356,433.8c0-9.3,2.8-16.8,8.3-22.5c5.5-5.7,12.6-8.6,21.1-8.6c8.1,0,14.5,2.8,19.5,8.4c5,5.5,7.6,12.4,7.6,20.6
		c0,1.3,0,2.6-0.1,3.7h-47.7c0.5,13.1,8.5,21.5,21.1,21.5c10.6,0,17.8-3.8,21.6-8.4v9.8c-5.7,4.4-13,6.7-21.6,6.7
		c-8.9,0-16.1-2.8-21.6-8.3c-5.5-5.6-8.2-13.1-8.2-22.3V433.8z"/>
	<path class="st0" d="M423.2,463v-58.8h8.6v9.9c3.2-6.5,9.6-10.8,18.1-10.8c1.3,0,2.6,0.1,3.6,0.2v9.3c-1.5-0.3-3.5-0.6-5.8-0.6
		c-9.2,0-15.9,6.8-15.9,16.6V463H423.2z"/>
	<path class="st0" d="M508.5,409.1v9.9c-5.5-5.7-12.1-8.5-19.7-8.5c-6.5,0-11.9,2.2-16.2,6.7c-4.3,4.3-6.4,9.8-6.4,16.5
		c0,6.6,2.1,12.1,6.4,16.6c4.3,4.3,9.7,6.5,16.2,6.5c7.7,0,14.2-2.8,19.7-8.5v9.9c-5,4.4-11.7,6.6-19.7,6.6
		c-8.7,0-16.1-2.9-22.2-8.9c-6.1-5.9-9.1-13.4-9.1-22.3c0-8.9,3-16.2,9.1-22.2c6.1-6,13.4-9,22.2-9
		C496.7,402.4,503.2,404.7,508.5,409.1"/>
	<path class="st0" d="M519.3,404.2h8.6V463h-8.6V404.2z M519.6,392.7c-2.3-2.3-2.3-6.1,0-8.3c2.3-2.3,5.8-2.3,8.2,0
		c2.3,2.2,2.3,5.9,0,8.3C525.4,395,521.9,395,519.6,392.7"/>
	<path class="st0" d="M584.2,450.1c4.2-4.4,6.3-9.9,6.3-16.6c0-6.7-2.1-12.1-6.3-16.5c-4.1-4.4-9.3-6.7-15.6-6.7
		c-6.1,0-11.1,2.2-15.2,6.7c-4,4.3-5.9,9.8-5.9,16.5c0,6.6,2,12.1,5.9,16.6c4.1,4.3,9.1,6.5,15.2,6.5
		C574.9,456.7,580.1,454.5,584.2,450.1 M589.4,412.9v-8.7h8.6V463h-8.6v-8.7c-3.4,5.9-10.3,10.5-20.9,10.5c-8.3,0-15.4-2.9-21.1-8.9
		c-5.7-5.9-8.6-13.4-8.6-22.3c0-8.9,2.9-16.2,8.6-22.2c5.7-6,12.8-9,21.1-9C579.2,402.4,586.1,407,589.4,412.9"/>
</g>
<rect x="611.4" y="381.7" class="st0" width="8.6" height="81.3"/>
<polygon class="st0" points="491.2,179.8 365.6,179.8 365.6,213 411.3,213 411.3,334.4 445.1,334.4 445.1,213 491.2,213 "/>
<g>
	<path class="st0" d="M326.2,300.4h-18.7v-87.2h18.7c25.7,0,44,17.7,44,43.6C370.3,282.7,351.9,300.4,326.2,300.4 M394.9,219h-35.3
		v-32.7c-10-4.4-21.3-6.9-33.4-6.9h-52.5v77l39.7,78h12.8c44.5,0,77.8-32.9,77.8-77.6C404,242.8,400.8,230,394.9,219"/>
</g>
<path class="st0" d="M227.9,251.6l17.7,34.9h-35.7L227.9,251.6z M262.1,318.5l8,15.8h36.5l-78.8-154.6l-79,154.6h36.5l8.2-15.8
	H262.1z"/>
</svg>